Motion_pl01
version=1
nRows=10
nColumns=43
inDegrees=yes
endheader
time	pelvis_tilt	pelvis_list	pelvis_rotation	pelvis_tx	pelvis_ty	pelvis_tz	hip_flexion_r	hip_adduction_r	hip_rotation_r	knee_angle_r	ankle_angle_r	subtalar_angle_r	mtp_angle_r	hip_flexion_l	hip_adduction_l	hip_rotation_l	knee_angle_l	ankle_angle_l	subtalar_angle_l	mtp_angle_l	lumbar_extension	lumbar_bending	lumbar_rotation	neck_flexion	neck_lateral_bending	neck_rotation	arm_flex_r	arm_add_r	arm_rot_r	elbow_flex_r	pro_sup_r	wrist_flex_r	wrist_dev_r	hand_finger_flex_r	arm_flex_l	arm_add_l	arm_rot_l	elbow_flex_l	pro_sup_l	wrist_flex_l	wrist_dev_l	hand_finger_flex_l
      6.59500000	     -0.86537147	    -32.45267063	     88.74743910	     -0.01529467	      0.63031694	      0.46653353	     95.86362167	     -2.82881205	      1.92068811	    -94.23623048	     -1.74299312	     16.32491321	     32.20814729	     93.59093222	    -10.84430258	     -0.89726397	    -95.74854560	      6.70777790	     12.85737912	     32.83912102	    -50.70708732	     -3.30377726	     -1.18025401	     36.86945138	      3.66002893	    -13.56191445	    117.68700444	    -19.21071641	     28.25765257	     40.78322412	    133.95616344	      2.18847542	    -12.33566252	    -48.17852792	    133.91652300	    -23.53152793	     54.82738339	     41.87932558	    133.24404152	     -3.41394166	    -11.21856411	    -32.72122478
      6.59750000	     -0.86476434	    -32.45148087	     88.74703414	     -0.01534266	      0.63038653	      0.46658203	     95.86224869	     -2.82817266	      1.92040546	    -94.23723103	     -1.74291487	     16.32487702	     32.20814018	     93.59084116	    -10.84443227	     -0.89723651	    -95.74881346	      6.70779835	     12.85735670	     32.83919233	    -50.70437312	     -3.30365393	     -1.18168473	     36.87050401	      3.65970168	    -13.56245991	    117.68733036	    -19.21053654	     28.25767870	     40.78345425	    133.95613552	      2.18854004	    -12.33564366	    -48.17854584	    133.91649502	    -23.53076714	     54.82741019	     41.87963335	    133.24395452	     -3.41394368	    -11.21850349	    -32.72124110
      6.60000000	     -0.85543233	    -32.42958244	     88.73952668	     -0.01545206	      0.63033754	      0.46669678	     95.85236477	     -2.82509352	      1.92091941	    -94.23343852	     -1.74195201	     16.32552825	     32.20807750	     93.58912405	    -10.84515270	     -0.89733179	    -95.75078460	      6.70787589	     12.85717152	     32.83979984	    -50.67378708	     -3.29900065	     -1.19728066	     36.88268685	      3.65664419	    -13.56864201	    117.69123768	    -19.20881179	     28.25759709	     40.78577908	    133.95582455	      2.18895224	    -12.33549549	    -48.17872868	    133.91601772	    -23.52224901	     54.82775530	     41.88265975	    133.24321920	     -3.41393453	    -11.21804073	    -32.72136794
      6.60250000	     -0.85472340	    -32.42818008	     88.73919358	     -0.01545246	      0.63035256	      0.46666685	     95.85268438	     -2.82496031	      1.92101998	    -94.23316780	     -1.74199130	     16.32556231	     32.20807389	     93.58900205	    -10.84520803	     -0.89731565	    -95.75094233	      6.70788265	     12.85715588	     32.83983547	    -50.67257122	     -3.29878152	     -1.19809144	     36.88353126	      3.65646447	    -13.56907752	    117.69125779	    -19.20857245	     28.25767498	     40.78585795	    133.95581216	      2.18900640	    -12.33549086	    -48.17872997	    133.91581265	    -23.52179047	     54.82782646	     41.88272874	    133.24318694	     -3.41390253	    -11.21800011	    -32.72136595
      6.60500000	     -0.83887396	    -32.55957912	     88.72539990	     -0.01526022	      0.63026671	      0.46656141	     95.95655351	     -2.75315462	      1.91331372	    -94.20761604	     -1.69857765	     16.35670755	     32.18838844	     93.68910775	    -10.90560200	     -0.89529504	    -95.71616786	      6.77160651	     12.83066464	     33.02724714	    -50.62468383	     -3.29845052	     -1.29396816	     39.27724185	      3.09496834	    -15.31530655	    117.78399703	    -18.99864768	     28.14148441	     40.73158579	    133.83490694	      2.30593984	    -12.15925031	    -48.24673815	    133.99252666	    -23.54247013	     54.68168050	     41.94574592	    133.11242242	     -3.33063702	    -11.01823171	    -32.73486491
      6.60750000	     -0.83930220	    -32.55617324	     88.72491668	     -0.01527168	      0.63032111	      0.46657733	     95.95604416	     -2.75267728	      1.91267724	    -94.20703399	     -1.69852912	     16.35666949	     32.18837876	     93.68873646	    -10.90552157	     -0.89539026	    -95.71668883	      6.77156105	     12.83066951	     33.02733687	    -50.62075114	     -3.29744686	     -1.29496562	     39.27768460	      3.09476868	    -15.31569584	    117.78493982	    -18.99897213	     28.14125756	     40.73226253	    133.83485399	      2.30587010	    -12.15931674	    -48.24681824	    133.99308151	    -23.54228727	     54.68147310	     41.94594772	    133.11235678	     -3.33063671	    -11.01817117	    -32.73488030
      6.61000000	     -0.84056374	    -32.53829441	     88.72023219	     -0.01528768	      0.63027741	      0.46667452	     95.94936055	     -2.75106291	      1.91046230	    -94.20145271	     -1.69771497	     16.35679677	     32.18833531	     93.68655240	    -10.90519521	     -0.89585676	    -95.71899651	      6.77128858	     12.83069691	     33.02772975	    -50.59692582	     -3.29084710	     -1.30145020	     39.28176145	      3.09363460	    -15.31843159	    117.79012681	    -18.99998815	     28.14008078	     40.73575391	    133.83457767	      2.30543693	    -12.15969057	    -48.24720818	    133.99599604	    -23.54000532	     54.68052818	     41.94711238	    133.11207259	     -3.33061508	    -11.01796114	    -32.73493623
      6.61250000	     -0.83962731	    -32.53586260	     88.71873998	     -0.01531167	      0.63032730	      0.46669625	     95.94757647	     -2.75107083	      1.91047354	    -94.20171815	     -1.69760257	     16.35680816	     32.18832388	     93.68586856	    -10.90520724	     -0.89591801	    -95.71973849	      6.77120979	     12.83069580	     33.02783497	    -50.59213517	     -3.28979033	     -1.30304870	     39.28330595	      3.09324925	    -15.31942479	    117.79099889	    -18.99971001	     28.14002318	     40.73660277	    133.83452097	      2.30540618	    -12.15981919	    -48.24728764	    133.99615818	    -23.53944115	     54.68048836	     41.94710556	    133.11203349	     -3.33049433	    -11.01787868	    -32.73491718
      6.61500000	     -0.83502031	    -32.51890239	     88.70975988	     -0.01541515	      0.63026504	      0.46673727	     95.93668527	     -2.75106269	      1.91063765	    -94.19849517	     -1.69660921	     16.35713584	     32.18826138	     93.68159226	    -10.90534857	     -0.89619743	    -95.72392114	      6.77072821	     12.83066837	     33.02840066	    -50.56218969	     -3.28225486	     -1.31317984	     39.29458947	      3.09089778	    -15.32633913	    117.79562003	    -18.99709629	     28.13993820	     40.74131912	    133.83420028	      2.30528647	    -12.16059351	    -48.24770565	    133.99664325	    -23.53528259	     54.68056396	     41.94690621	    133.11188532	     -3.32965608	    -11.01745106	    -32.73474950
      6.61750000	     -0.83390952	    -32.51782636	     88.70835527	     -0.01542889	      0.63030713	      0.46677478	     95.93510960	     -2.75127257	      1.91088172	    -94.19920607	     -1.69652203	     16.35715169	     32.18825205	     93.68086180	    -10.90540373	     -0.89618812	    -95.72469266	      6.77066164	     12.83065296	     33.02848739	    -50.55879706	     -3.28142328	     -1.31447220	     39.29668799	      3.09051231	    -15.32761354	    117.79577512	    -18.99633133	     28.14013703	     40.74189577	    133.83416667	      2.30534808	    -12.16072211	    -48.24774688	    133.99626136	    -23.53478419	     54.68073041	     41.94664972	    133.11189022	     -3.32944671	    -11.01736794	    -32.73469904
